<svg id="SvgjsSvg1001" width="288" height="288" xmlns="http://www.w3.org/2000/svg" version="1.1" xmlns:xlink="http://www.w3.org/1999/xlink" xmlns:svgjs="http://svgjs.com/svgjs"><defs id="SvgjsDefs1002"></defs><g id="SvgjsG1008"><svg xmlns="http://www.w3.org/2000/svg" version="1.0" viewBox="0 0 300 191" width="288" height="288"><path d="M1325 1371 c-44 -11 -79 -37 -108 -79 -33 -48 -43 -74 -51 -144 -6-48 -3 -67 17 -118 l25 -61 -26 -11 c-153 -59 -270 -59 -401 2 -126 59 -221
163 -270 297 -23 62 -34 80 -55 87 -42 16 -51 -3 -31 -66 81 -249 310 -417
569 -418 43 0 107 10 168 26 l99 26 40 -32 c67 -53 124 -73 224 -78 125 -5
227 21 417 106 148 67 251 106 336 128 141 35 159 32 86 -12 -105 -63 -130
-105 -70 -120 19 -5 35 2 68 28 65 52 116 80 183 98 35 10 61 23 63 32 2 8
-16 27 -40 43 -65 43 -147 124 -185 183 -28 43 -38 52 -63 52 -21 0 -30 -5
-30 -17 0 -29 52 -106 107 -158 l53 -50 -62 -2 c-92 -3 -240 -44 -390 -108
-355 -151 -414 -168 -515 -147 -57 12 -143 57 -150 78 -2 7 15 21 39 33 58 28
135 88 170 132 21 26 31 51 35 90 5 50 3 58 -28 99 -19 24 -48 52 -66 62 -36
21 -114 31 -158 19z m142 -31 c17 -10 37 -29 44 -42 6 -13 20 -33 31 -45 16
-17 18 -25 9 -41 -6 -11 -8 -34 -5 -51 6 -27 0 -36 -45 -80 -48 -47 -159 -121
-182 -121 -23 0 -5 -33 34 -61 135 -98 229 -89 562 53 275 118 325 133 485
144 41 3 77 7 79 10 2 2 -25 30 -61 63 -60 55 -120 142 -107 156 11 11 37 -6
43 -28 6 -27 143 -168 197 -204 l40 -27 -38 -13 c-70 -25 -182 -85 -205 -109
-22 -23 -68 -33 -68 -15 0 16 82 81 132 104 26 12 47 25 48 30 0 12 -102 7
-170 -9 -86 -20 -208 -65 -353 -130 -224 -102 -378 -133 -492 -99 -59 17 -128
58 -165 97 -14 16 -23 18 -32 10 -8 -6 -49 -21 -93 -33 -160 -45 -317 -24
-458 60 -71 41 -146 108 -170 150 -17 30 -17 31 0 31 10 0 46 -31 80 -69 145
-161 326 -211 526 -147 48 16 90 32 93 37 2 5 -7 33 -20 62 -14 29 -28 69 -32
88 l-5 34 25 -30 c14 -16 36 -54 48 -82 13 -29 28 -53 35 -53 21 0 135 73 188
121 41 38 54 57 62 95 l11 47 -42 43 c-57 58 -98 65 -180 31 -33 -14 -63 -23
-66 -20 -10 9 55 52 85 56 70 9 102 6 132 -13z m-994 -43 c10 -20 20 -48 21
-63 2 -14 9 -30 17 -35 12 -7 11 -11 -3 -26 -17 -16 -18 -16 -18 9 0 15 -4 30
-10 33 -5 3 -17 23 -26 43 -8 20 -20 44 -24 53 -5 9 -6 20 -3 23 13 12 28 0
46 -37z m972 11 c39 -18 68 -71 60 -110 -9 -41 -102 -134 -171 -171 -62 -32
-70 -27 -89 58 -34 145 84 276 200 223z" transform="matrix(.1 0 0 -.1 0 191)" fill="#2d6cdf" class="color000 svgShape"></path></svg></g></svg>